<?xml version="1.0" encoding="utf-8"?>
<!-- Generator: Adobe Illustrator 19.0.0, SVG Export Plug-In . SVG Version: 6.00 Build 0)  -->
<svg version="1.1" id="Layer_1" xmlns="http://www.w3.org/2000/svg" xmlns:xlink="http://www.w3.org/1999/xlink" x="0px" y="0px"
	 viewBox="-252.5 344.1 94.9 79.8" style="enable-background:new -252.5 344.1 94.9 79.8;" xml:space="preserve">
<style type="text/css">
	.st0{fill:#4E62F2;}
</style>
<g>
	<path class="st0" d="M-164.5,344.1h-81c-3.9,0-7,3.2-7,7v65.8c0,3.9,3.2,7,7,7h80.9c3.9,0,7-3.2,7-7v-65.8
		C-157.5,347.2-160.7,344.1-164.5,344.1z M-222.5,351.3c1.7,0,3,1.4,3,3c0,1.7-1.4,3-3,3c-1.7,0-3-1.4-3-3
		C-225.5,352.6-224.2,351.3-222.5,351.3z M-231.7,351.3c1.7,0,3,1.4,3,3c0,1.7-1.4,3-3,3c-1.7,0-3-1.4-3-3
		C-234.7,352.6-233.3,351.3-231.7,351.3z M-240.9,351.3c1.7,0,3,1.4,3,3c0,1.7-1.4,3-3,3c-1.7,0-3-1.4-3-3
		C-243.9,352.6-242.5,351.3-240.9,351.3z M-166.6,414.3c0,0.3-0.2,0.5-0.5,0.5h-75.8c-0.3,0-0.5-0.2-0.5-0.5v-49.7h76.8V414.3z"/>
	<path class="st0" d="M-233.3,395.3h7.7v5.5c0,0.5,0.4,1,1,1h3.1c0.5,0,1-0.4,1-1v-5.5h2.8c0.5,0,1-0.4,1-1v-3.1c0-0.5-0.4-1-1-1
		h-2.8v-4.1c0-0.5-0.4-1-1-1h-3.1c-0.5,0-1,0.4-1,1v4.1h-3.3l1-11.4c0-0.5-0.4-1-0.9-1.1l-3-0.3c-0.5,0-1,0.4-1.1,0.9l-1.3,15.8
		C-234.3,394.9-233.9,395.3-233.3,395.3z"/>
	<path class="st0" d="M-193.4,395.3h7.7v5.5c0,0.5,0.4,1,1,1h3.1c0.5,0,1-0.4,1-1v-5.5h2.8c0.5,0,1-0.4,1-1v-3.1c0-0.5-0.4-1-1-1
		h-2.8v-4.1c0-0.5-0.4-1-1-1h-3.1c-0.5,0-1,0.4-1,1v4.1h-3.3l1-11.4c0-0.5-0.4-1-0.9-1.1l-3-0.3c-0.5,0-1,0.4-1.1,0.9l-1.3,15.8
		C-194.4,394.9-193.9,395.3-193.4,395.3z"/>
	<path class="st0" d="M-212.6,401.8h13.6c0.5,0,1-0.4,1-1v-22.1c0-0.5-0.4-1-1-1h-13.6c-0.5,0-1,0.4-1,1v22.1
		C-213.6,401.4-213.1,401.8-212.6,401.8z M-208.6,382.7h5.5v14.1h-5.5V382.7z"/>
</g>
</svg>
