<?xml version="1.0" encoding="utf-8"?>
<!-- Generator: Adobe Illustrator 19.0.0, SVG Export Plug-In . SVG Version: 6.00 Build 0)  -->
<svg version="1.1" id="Layer_1" xmlns="http://www.w3.org/2000/svg" xmlns:xlink="http://www.w3.org/1999/xlink" x="0px" y="0px"
	 viewBox="-492 493.4 13.4 15.6" style="enable-background:new -492 493.4 13.4 15.6;" xml:space="preserve">
<style type="text/css">
	.st0{fill:#4E62F2;}
</style>
<title>attach</title>
<desc>Created with Sketch.</desc>
<g>
	<g transform="translate(-630.000000, -254.000000)">
		<path class="st0" d="M150.5,756.2l-4.6,4.6c-1.6,1.6-4.1,1.6-5.7,0c-1.6-1.6-1.6-4.1,0-5.7l6-6c1-1,2.6-1,3.5,0c1,1,1,2.6,0,3.5
			l-6,6c-0.4,0.4-1,0.4-1.4,0s-0.4-1,0-1.4l4.6-4.6l-0.7-0.7l-4.6,4.6c-0.8,0.8-0.8,2,0,2.8s2,0.8,2.8,0l6-6c1.4-1.4,1.4-3.6,0-4.9
			c-1.4-1.4-3.6-1.4-4.9,0l-6,6c-2,2-2,5.1,0,7.1s5.1,2,7.1,0l4.6-4.6L150.5,756.2z"/>
	</g>
</g>
</svg>
