<?xml version="1.0" encoding="utf-8"?>
<!-- Generator: Adobe Illustrator 19.0.0, SVG Export Plug-In . SVG Version: 6.00 Build 0)  -->
<svg version="1.1" id="Layer_1" xmlns="http://www.w3.org/2000/svg" xmlns:xlink="http://www.w3.org/1999/xlink" x="0px" y="0px"
	 viewBox="-492 493.4 13.4 15.6" style="enable-background:new -492 493.4 13.4 15.6;" xml:space="preserve">
<style type="text/css">
	.st0{fill:#E7E9F2;stroke:#E7E9F2;stroke-width:0.8;stroke-miterlimit:10;}
</style>
<title>attach</title>
<desc>Created with Sketch.</desc>
<g>
	<g transform="translate(-630.000000, -254.000000)">
		<path class="st0" d="M149.9,756.1l-4.2,4.2c-1.4,1.4-3.7,1.4-5.2,0c-1.4-1.4-1.4-3.7,0-5.2l5.4-5.4c0.9-0.9,2.4-0.9,3.2,0
			c0.9,0.9,0.9,2.4,0,3.2l-5.4,5.4c-0.4,0.4-0.9,0.4-1.3,0c-0.4-0.4-0.4-0.9,0-1.3l4.2-4.2l-0.6-0.6l-4.2,4.2
			c-0.7,0.7-0.7,1.8,0,2.5c0.7,0.7,1.8,0.7,2.5,0l5.4-5.4c1.3-1.3,1.3-3.3,0-4.4c-1.3-1.3-3.3-1.3-4.4,0l-5.4,5.4
			c-1.8,1.8-1.8,4.6,0,6.4s4.6,1.8,6.4,0l4.2-4.2L149.9,756.1z"/>
	</g>
</g>
</svg>
