<?xml version="1.0" encoding="utf-8"?>
<!-- Generator: Adobe Illustrator 19.0.0, SVG Export Plug-In . SVG Version: 6.00 Build 0)  -->
<svg version="1.1" id="Layer_1" xmlns="http://www.w3.org/2000/svg" xmlns:xlink="http://www.w3.org/1999/xlink" x="0px" y="0px"
	 viewBox="-454 456 90 90" style="enable-background:new -454 456 90 90;" xml:space="preserve">
<style type="text/css">
	.st0{fill:#4E62F2;}
</style>
<g>
	<path class="st0" d="M-409,456c-24.8,0-45,20.2-45,45s20.2,45,45,45s45-20.2,45-45S-384.2,456-409,456z M-409,541
		c-22.1,0-40-17.9-40-40c0-22.1,17.9-40,40-40s40,17.9,40,40C-369,523.1-386.9,541-409,541z"/>
	<circle class="st0" cx="-391.2" cy="492.6" r="5.7"/>
	<circle class="st0" cx="-426.8" cy="492.6" r="5.7"/>
	<path class="st0" d="M-409,525.3c10.3,0,20.3-8.3,20.3-18.6h-40.7C-429.3,517-419.3,525.3-409,525.3z"/>
</g>
</svg>
