<?xml version="1.0" encoding="utf-8"?>
<!-- Generator: Adobe Illustrator 19.0.0, SVG Export Plug-In . SVG Version: 6.00 Build 0)  -->
<svg version="1.1" id="Layer_1" xmlns="http://www.w3.org/2000/svg" xmlns:xlink="http://www.w3.org/1999/xlink" x="0px" y="0px"
	 viewBox="-436.9 263.1 267.4 267.4" style="enable-background:new -436.9 263.1 267.4 267.4;" xml:space="preserve">
<style type="text/css">
	.st0{fill:#FCFCFC;}
</style>
<g>
	<path class="st0" d="M-303.3,408.8c-5.3,0-8.9-4.5-9.5-9.6l-4.8-43c-0.9-7.4,7.1-14.3,14.3-14.3c7.4,0,15.1,6.9,14.4,14.3l-4.8,43
		C-294.2,404.3-297.8,408.8-303.3,408.8z M-303.3,286.7l-18.9,20.8c-2.4,2.8-6.4,3.6-9.6,2.6l-27.9-8.4l-0.2,25.1
		c0,4.6-3.4,8.9-8.3,9.5l-29.1,3.6l10.1,23.2c1.7,4,0.5,8.4-2.8,11l-23.7,22.7l24.2,23.2c2.9,2.8,3.8,7.1,2.2,10.7l-10.1,23.2
		l29.1,3.6c5,0.7,8.6,5.2,8.3,10.1l0.2,24.4l27.9-8.4c3.8-1.2,7.6,0.2,10,2.9l18.6,20.5l18.9-20.8c2.6-2.8,6.5-3.6,9.8-2.6l27.7,8.4
		l0.3-25.1c0-3.8,1.2-8.3,8.3-9.5l29.1-3.6l-10.1-23.2c-1.7-4-0.5-8.4,2.6-11.2l23.9-22.7l-24.2-23c-2.9-2.8-3.8-7.1-2.2-10.7
		l10.1-23.2l-29.1-3.6c-5-0.7-8.6-5.2-8.3-10.1l-0.3-24.4l-27.7,8.4c-3.8,1.2-7.6-0.2-10-2.9C-284.6,307.2-303.3,286.7-303.3,286.7z
		 M-332.2,290.1l21.8-23.7c4-4.1,10.1-4.5,14.1-0.2l21.8,23.9l33.9-10.3c6.2-2.1,12.6,2.4,12.6,8.9l0.3,29.6l33.4,4
		c6.2,0.9,10.1,7.4,7.6,13.2l-12.6,28.9l27.2,25.8c3.6,3.8,3.4,9.8-0.3,13.6l-26.8,25.3l12.4,28.5c2.8,5.8-0.9,12.9-7.4,13.6
		l-33.4,4.1l-0.3,29.6c0,6.2-6,10.8-12.2,8.9l-34.2-10.3l-21.7,23.7c-4.1,4.1-10.1,4.5-14.1,0.2l-22-23.9l-33.9,10.3
		c-6,1.9-12.4-2.6-12.6-8.9l-0.2-29.6l-33.4-4.1c-6.2-0.7-10.1-7.2-7.6-13.2l12.4-28.9l-27-25.6c-3.6-4-3.4-10,0.3-13.6l26.7-25.4
		l-12.2-28.5c-2.8-5.7,0.9-12.7,7.4-13.6l33.4-4l0.2-29.6c0.2-6.2,6.2-10.8,12.4-8.9C-366.2,279.8-332.2,290.1-332.2,290.1z
		 M-303.3,423.1c7.9,0,14.4,6.4,14.4,14.3c0,7.9-6.5,14.4-14.4,14.4s-14.3-6.5-14.3-14.4C-317.6,429.4-311.2,423.1-303.3,423.1z"/>
</g>
</svg>
