<?xml version="1.0" encoding="utf-8"?>
<!-- Generator: Adobe Illustrator 19.0.0, SVG Export Plug-In . SVG Version: 6.00 Build 0)  -->
<svg version="1.1" id="Layer_1" xmlns="http://www.w3.org/2000/svg" xmlns:xlink="http://www.w3.org/1999/xlink" x="0px" y="0px"
	 viewBox="-255 334 100 100" style="enable-background:new -255 334 100 100;" xml:space="preserve">
<style type="text/css">
	.st0{fill:#FCFCFC;}
</style>
<path class="st0" d="M-239.3,347.6c-20.1,19-21,50.6-2,70.7c0.3,0.4,0.7,0.7,1,1c19.5,19.5,51.2,19.5,70.7,0
	c19.5-19.5,19.5-51.2,0-70.7C-188.8,329.5-219.7,329.1-239.3,347.6z M-229.7,369.2l9.9-9.9l14.8,14.8l14.8-14.8l9.9,9.9l-14.8,14.9
	l14.8,14.8l-9.9,9.9l-14.8-14.8l-14.8,14.8l-9.9-9.9l14.8-14.8L-229.7,369.2z"/>
</svg>
