<?xml version="1.0" encoding="utf-8"?>
<!-- Generator: Adobe Illustrator 19.0.0, SVG Export Plug-In . SVG Version: 6.00 Build 0)  -->
<svg version="1.1" id="Layer_1" xmlns="http://www.w3.org/2000/svg" xmlns:xlink="http://www.w3.org/1999/xlink" x="0px" y="0px"
	 viewBox="-140.2 39.5 146.4 115.1" style="enable-background:new -140.2 39.5 146.4 115.1;" xml:space="preserve">
<style type="text/css">
	.st0{fill:#4E62F2;}
</style>
<title>picture, image, photo, camera, photography</title>
<g>
	<path class="st0" d="M1,39.5h-136c-2.9,0-5.2,2.3-5.2,5.2v104.6c0,2.9,2.3,5.2,5.2,5.2H1c2.9,0,5.2-2.3,5.2-5.2V44.7
		C6.2,41.8,3.9,39.5,1,39.5z M-98.4,60.4c5.8,0,10.5,4.7,10.5,10.5c0,5.8-4.7,10.5-10.5,10.5c-5.8,0-10.5-4.7-10.5-10.5
		C-108.8,65.1-104.2,60.4-98.4,60.4z M-15.2,130.7c-0.9,1.8-2.7,2.9-4.7,2.9h-94.1c-2,0-3.8-1.2-4.7-3c-0.7-1.7-0.5-3.7,0.6-5.2
		l20.9-26.1c1.8-2.3,5.1-2.6,7.3-0.8c0.1,0,0.1,0.1,0.2,0.2l8.5,7.4l20.5-27.8c1-1.3,2.5-2.1,4.2-2.1c1.6,0,3.2,0.7,4.2,2l36.6,47.1
		C-14.5,126.8-14.3,128.9-15.2,130.7z"/>
</g>
</svg>
