<?xml version="1.0" encoding="utf-8"?>
<!-- Generator: Adobe Illustrator 19.0.0, SVG Export Plug-In . SVG Version: 6.00 Build 0)  -->
<svg version="1.1" id="Layer_1" xmlns="http://www.w3.org/2000/svg" xmlns:xlink="http://www.w3.org/1999/xlink" x="0px" y="0px"
	 viewBox="-49 77 512 511.6" style="enable-background:new -49 77 512 511.6;" xml:space="preserve">
<style type="text/css">
	.st0{fill:#333333;}
</style>
<title>login</title>
<path class="st0" d="M463,332.9c-1.2,126.6-94.9,233.1-223.4,253C133.9,602.2,26.3,553.8-28.6,465.1c-10.4-16.9-7.8-33.1,6.9-42
	c14.2-8.6,31.4-3.3,41.9,13c46.2,71.8,130.2,109.5,211.4,95c87.7-15.6,151.8-75.9,170-159.9c24.3-112-61-225.6-179.1-237
	c-87.3-8.4-154.5,24.9-202.3,95.6c-11,16.2-27.5,21.8-41.8,13.4c-14.6-8.7-17.5-25.4-7.2-42C26.7,111.8,136.6,62.5,240.4,80.8
	c113.5,19.9,198.7,101,218,207.9C461,303.2,461.5,318.1,463,332.9z"/>
<path class="st0" d="M143.1,374.1c-48.8,0.4-92.8,1.2-136.7,1.1c-36.7,0-57.8-15.6-55.3-42.1c3.1-32.9,25.6-41,53.7-41
	c44,0.1,88-0.7,137.4-1.1c-0.2-22.5-1.1-43.1-0.5-63.5c0.9-30.1,11.9-37.6,34.5-21.6c49.2,34.9,97.4,71.4,145.8,107.6
	c15.2,11.4,15.7,24,0.4,35.8c-48.8,37.6-97.3,75.5-146.8,112c-20.5,15.1-30.8,4.1-31.8-18.9C143.1,421.6,143.4,400.6,143.1,374.1z"
	/>
</svg>
