<?xml version="1.0" encoding="utf-8"?>
<!-- Generator: Adobe Illustrator 19.0.0, SVG Export Plug-In . SVG Version: 6.00 Build 0)  -->
<svg version="1.1" id="Layer_1" xmlns="http://www.w3.org/2000/svg" xmlns:xlink="http://www.w3.org/1999/xlink" x="0px" y="0px"
	 viewBox="-313 462.9 256 76.2" style="enable-background:new -313 462.9 256 76.2;" xml:space="preserve">
<style type="text/css">
	.st0{fill:#4E62F2;}
</style>
<g>
	<path class="st0" d="M-129.2,463.7c-2.9,0.5-3.5,1.1-4.1,4.1c-0.4,1.9-0.6,8.4-0.5,14.5c0.3,13.1-0.3,15.5-4,15.5
		c-4.6,0-10.4,2.2-10.4,3.9c0,0.9,1.4,2.5,3,3.6s3,2.3,3,2.7c0,0.5,1.8,0.8,4,0.8s4,0.3,4,0.7c0.1,0.5,0.2,5,0.3,10.2l0.3,9.3
		l3.9,3.2c5.1,4.1,10.7,5.7,17,5c5.8-0.8,7.5-1.8,7.5-4.8c-0.1-2.6-3.2-5-8.8-6.7l-4.3-1.2l0.3-7.6l0.3-7.6l6.7-0.5
		c6.9-0.5,7.8-0.9,8.2-3.2c0.1-0.7,0.5-1.8,0.9-2.5s-0.1-1.4-1.3-1.8c-1.1-0.3-2-1-2-1.5s-2.7-1.5-6-2.2c-3.3-0.6-6-1.7-6.1-2.3
		c-0.1-1.2-0.4-11.1-0.7-20.3c-0.2-5.6-0.6-6.7-3.1-9.3c-1.6-1.6-3.3-2.8-3.8-2.8C-125.3,463-127.3,463.3-129.2,463.7z"/>
	<path class="st0" d="M-267.5,466.5c0.4,1.6,0.6,3.7,0.5,4.8c-0.1,1.1-0.1,13.7-0.1,28c0.1,14.3,0.1,27.3,0,29
		c-0.2,7.9,3,10.6,11.4,9.6c4.5-0.5,5-0.8,5-3.1c0-1.4,0.3-3.2,0.7-4.1c0.4-0.8,0.3-5-0.1-9.2l-0.7-7.7l3.9-3.2c3.8-3,4-3,5.4-1.3
		c1,1.4,1.3,5,1.1,13.1c-0.2,11.8,0.4,13.5,5.7,16.1c2.3,1.2,8.7,0.5,9.7-1c1-1.7,0.8-19.9-0.3-24.2c-0.6-2.2-1.2-4.9-1.3-6
		c-0.3-2.8-3.7-8-7.1-10.7c-3-2.4-7.2-2.8-14-1.5l-4,0.8l-0.1-10.5c0-5.8-0.5-11.5-1.1-12.8s-1.6-3.5-2.3-4.9
		c-1.3-2.7-4.3-3.9-10.1-3.9C-268,463.8-268.2,464-267.5,466.5z"/>
	<path class="st0" d="M-165.2,466.5c-2.2,0.9-3,2.4-3,5.9c0,6.8-1.1,9.5-4.2,10.1c-1.5,0.3-3.1,1-3.4,1.4c-0.3,0.5-1.3,0.9-2.3,0.9
		s-2.4,0.6-3,1.4c-1.6,2,3.3,7.5,7.3,8.2c1.6,0.3,3.3,0.7,3.8,1c0.4,0.3,0.7,4.9,0.7,10.2c-0.1,11.5,0.8,18.7,2.8,22.3
		c2.5,4.2,9.7,7.9,16.8,8.6c7.9,0.7,10.9,0,12.3-3.1c2.4-5.3-3.5-9.8-10.5-8c-1.5,0.4-2.3,0-2.7-1.4c-0.6-1.6-1-19.3-0.7-28
		c0.1-2.1,0.5-2.2,7-2.2h6.9l0.4-3.5c0.2-2-0.1-4-0.6-4.5c-0.6-0.4-4.4-1.6-8.3-2.6l-7.3-1.7v-5C-153.2,468-158.2,463.9-165.2,466.5
		z"/>
	<path class="st0" d="M-207.2,495.8c-0.8,0.5-2.4,1-3.5,1c-1.2,0-3.6,1.3-5.4,2.8c-2.7,2.2-3.4,3.6-3.7,7c-0.1,2.4-0.8,5-1.5,5.8
		c-2.3,2.8,0.9,17.7,4.3,19.2c0.3,0.2,1.6,1.2,2.9,2.3c1.6,1.4,3.8,1.9,8.3,2c8.9,0.2,10.6-0.1,15.3-2.1c3.9-1.7,4.5-1.7,7.4-0.3
		c3.4,1.7,13.2,1.4,15-0.4c1.7-1.7-1.6-6.9-5.2-8.2c-1.8-0.6-2.9-1.4-2.6-1.8c0.4-0.3,0.1-1.6-0.6-2.7c-0.8-1.2-1.5-4.8-1.6-8.1
		c-0.1-4.3-0.7-6.5-2.1-8c-1.1-1.2-2-2.6-2-3.2C-182.2,497.6-203.1,493.1-207.2,495.8z M-193.8,511c-0.9,7.6-1.3,8.5-5.2,11.2
		c-4.5,3.1-6.8,3.3-8.1,0.7c-0.8-1.4-0.3-3.2,2-7.7c3.5-6.8,5.2-8.4,9.1-8.4C-193.4,506.8-193.3,506.9-193.8,511z"/>
	<path class="st0" d="M-300.2,498c-6.1,2.9-7.8,4.5-10.2,9.7c-2.7,6-3.2,9.8-1.8,15.1c0.6,2.5,1.2,5.2,1.2,6c0,2.1,6.5,6.6,12.4,8.6
		c3.7,1.3,6.8,1.5,12.8,1c4.4-0.3,8.2-0.9,8.5-1.4c0.3-0.4,2-1.4,3.8-2.1c4.2-1.7,4.5-3,1.9-7.7c-2.2-3.8-2.3-3.9-7.5-3.6
		c-3,0.2-7.1,1.2-9.2,2.3c-3.2,1.6-4.2,1.7-5.8,0.7c-2.9-1.8-3.3-6.1-1-11.3c2.8-6.4,5.2-7.7,12.8-7c6.5,0.6,6.7,0.5,5.1-2.6
		c-0.9-1.6-0.7-1.9,0.9-1.9c1.9,0,1.9-0.1-0.2-2.4C-282.1,495.5-292,494-300.2,498z"/>
	<path class="st0" d="M-60.5,505c-2.8-3.1-13.8-9.2-16.3-9.1c-1,0-3,0.4-4.2,1c-1.3,0.5-2.8,0.6-3.4,0.3
		c-2.7-1.7-13.3,5.9-16.4,11.8c-0.8,1.6-1.4,5.6-1.4,9.4c0,5.7,0.4,7.2,2.6,10.1c1.4,1.8,4.4,4.3,6.6,5.4c5,2.5,16.7,4.4,18.2,2.9
		c0.5-0.5,2.2-1,3.6-1c2.9,0,10-5.4,10-7.6c0-0.8,0.4-1.4,0.8-1.4c0.5,0,1.6-2.2,2.5-4.8C-56,516-57.1,508.6-60.5,505z M-72.9,510.7
		c-0.9,7.6-1.3,8.5-5.2,11.2c-4.5,3.1-6.8,3.3-8.1,0.7c-0.8-1.4-0.3-3.2,2-7.7c3.5-6.8,5.2-8.4,9.1-8.4
		C-72.5,506.5-72.4,506.6-72.9,510.7z"/>
</g>
</svg>
