<!-- Generator: Adobe Illustrator 19.0.0, SVG Export Plug-In  -->
<svg version="1.1"
	 xmlns="http://www.w3.org/2000/svg" xmlns:xlink="http://www.w3.org/1999/xlink" xmlns:a="http://ns.adobe.com/AdobeSVGViewerExtensions/3.0/"
	 x="0px" y="0px" width="511.8px" height="124.7px" viewBox="0 0 511.8 124.7"
	 style="overflow:scroll;enable-background:new 0 0 511.8 124.7;" xml:space="preserve">
<style type="text/css">
	.st0{fill:#5565AF;}
</style>
<defs>
</defs>
<path id="XMLID_41_" class="st0" d="M88.8,39.2l-4.4,0.7l-6.1-23.2c-4.3-1.3-8.9-2-13.8-2c-11.9,0-21.1,4.5-27.6,13.4
	C30.2,37,27,48.7,27,63.1c0,15.4,3.8,27.7,11.5,36.8c7.7,9.2,18.3,13.7,32,13.7c7.6,0,15.6-1.5,24-4.6l1.1,4.6
	c-10.8,7.3-22.9,11-36.5,11c-17.6,0-31.8-5.3-42.7-15.9C5.4,98.1,0,84.2,0,66.8c0-18.5,6-33.1,17.9-43.9
	C29.8,12.2,45.3,6.8,64.5,6.8c9.5,0,19.2,1.1,29.1,3.3l0.5,0.8L88.8,39.2z"/>
<path id="XMLID_39_" class="st0" d="M166.9,44.6c7.9,0,14,2.1,18.5,6.4c4.5,4.3,6.7,10.4,6.7,18.2v28.4c0,6.7,0.1,11.7,0.2,14.9
	c0.1,1.5,0.8,2.4,2.1,2.7l9.8,2.8l0.2,3.9c-7.7-0.2-15.5-0.2-23.3-0.2c-8.1,0-15.4,0.1-21.8,0.2l-0.3-3.9l8.1-2.4
	c1.2-0.4,1.9-1.2,2-2.4c0.1-0.8,0.1-2.5,0.1-5.1V74.3c0-6.6-1.3-11.4-3.9-14.3c-2.6-2.9-6.4-4.3-11.6-4.3c-4.5,0-9.1,1-13.8,3.1
	v35.6c0,6.7,0.1,12.9,0.2,18.5c0.1,1.5,0.7,2.3,1.9,2.7l8.4,2.6l0.2,3.9c-6.7-0.2-14-0.2-21.8-0.2c-8,0-15.9,0.1-23.7,0.2l-0.4-3.9
	l10.4-2.8c1.2-0.3,1.8-1.1,1.9-2.4c0.1-3.4,0.1-6.8,0.1-9.9V32.2c0-7.1-0.1-13.5-0.3-19.5l-11.9-3.2l-0.5-3.3
	c13.5-2,25.2-4.1,35.2-6.2l0.9,0.6c-0.3,7.4-0.5,15.4-0.5,23.8v28.4C149,47.3,158,44.6,166.9,44.6z"/>
<path id="XMLID_36_" class="st0" d="M218.4,52.4c11.5-5.2,22.5-7.8,33.1-7.8c9.7,0,17,2.2,21.8,6.5c4.8,4.3,7.2,10.6,7.2,18.7
	l-0.4,33.6c-0.1,2.7-0.1,5,0.2,6.6c0.2,1.7,0.7,2.9,1.5,3.8c0.8,0.9,1.9,1.5,3.5,1.9c1.5,0.4,3.8,0.6,6.7,0.6l0.5,3.7
	c-7.5,2.6-14,3.9-19.5,3.9c-7.3,0-12.1-2.9-14.5-8.6c-6.8,5.8-14.1,8.6-21.7,8.6c-7.5,0-13.7-1.9-18.5-5.6c-4.8-3.7-7.3-9-7.3-15.8
	c0-8.5,3.9-14.7,11.8-18.6c7.8-3.9,19.6-5.9,35.3-5.9l0.1-6.1c0.1-5.8-1.3-10-4.2-12.7c-2.8-2.7-7.2-4.1-13.2-4.1
	c-5.5,0-12.2,1.2-20,3.6L218.4,52.4z M257.9,85.8c-8.5,0-14.5,1.1-18.1,3.2c-3.6,2.2-5.4,5.8-5.4,11.1c0,4.7,1.3,8.1,3.8,10.1
	s5.6,3,9.1,3c4,0,7.5-1,10.4-3.1L257.9,85.8z"/>
<path id="XMLID_34_" class="st0" d="M331.8,56.3c-0.3,16.8-0.5,31.1-0.5,42.7c0,5.4,0.8,9.2,2.5,11.3c1.7,2.1,4.9,3.1,9.6,3.1
	c3.7,0,7.6-0.2,12-0.6l0.6,4.8c-8.6,4.2-16.6,6.3-24,6.3c-7.5,0-13.4-1.6-17.5-4.7c-4.1-3.2-6.2-7.9-6.2-14.3
	c0-11.2,0.2-27.6,0.5-49L298,53.1l-0.7-4.4l13.5-1.2l7.7-19c4.6-0.8,8.8-1.6,12.5-2.3l1.1,0.6c-0.2,6.5-0.2,13.4-0.2,20.8h22.6v8.8
	H331.8z"/>
<path id="XMLID_18_" class="st0" d="M393.8,56.3c-0.3,16.8-0.5,31.1-0.5,42.7c0,5.4,0.8,9.2,2.5,11.3c1.7,2.1,4.9,3.1,9.6,3.1
	c3.7,0,7.6-0.2,12-0.6l0.6,4.8c-8.6,4.2-16.6,6.3-24,6.3c-7.5,0-13.4-1.6-17.5-4.7c-4.1-3.2-6.2-7.9-6.2-14.3
	c0-11.2,0.2-27.6,0.5-49L360,53.1l-0.7-4.4l13.5-1.2l7.7-19c4.6-0.8,8.8-1.6,12.5-2.3l1.1,0.6c-0.2,6.5-0.2,13.4-0.2,20.8h22.6v8.8
	H393.8z"/>
<path id="XMLID_15_" class="st0" d="M511.8,82.7c0,12.3-4.1,22.2-12.3,29.9c-8.2,7.6-18.9,11.4-32,11.4c-12.8,0-22.9-3.6-30.5-10.8
	c-7.6-7.2-11.4-16.6-11.4-28.2c0-11.8,4-21.5,12-29c8-7.6,18.7-11.4,32.3-11.4c12.9,0,23.1,3.5,30.6,10.5
	C508,62,511.8,71.3,511.8,82.7z M450.7,83.4c0,9.8,1.5,17.8,4.4,23.9c2.9,6.1,7.6,9.2,14.1,9.2c6,0,10.5-2.7,13.3-8.1
	c2.8-5.4,4.2-13.4,4.2-24c0-10-1.5-17.8-4.5-23.6c-3-5.7-7.7-8.6-14-8.6c-5.9,0-10.3,2.6-13.2,7.8C452.1,65.1,450.7,72.9,450.7,83.4
	z"/>
</svg>
