<!-- Generator: Adobe Illustrator 19.0.0, SVG Export Plug-In  -->
<svg version="1.1"
	 xmlns="http://www.w3.org/2000/svg" xmlns:xlink="http://www.w3.org/1999/xlink" xmlns:a="http://ns.adobe.com/AdobeSVGViewerExtensions/3.0/"
	 x="0px" y="0px" width="561.6px" height="123.1px" viewBox="0 0 561.6 123.1"
	 style="overflow:scroll;enable-background:new 0 0 561.6 123.1;" xml:space="preserve">
<style type="text/css">
	.st0{fill:#4E62F2;}
</style>
<defs>
</defs>
<path id="XMLID_27_" class="st0" d="M0,63.2v-0.3C0,29.1,26,2.6,61.1,2.6c23.7,0,38.9,9.9,49.1,24.2L86.1,45.5
	c-6.6-8.3-14.2-13.6-25.3-13.6c-16.2,0-27.6,13.7-27.6,30.6v0.3c0,17.4,11.4,30.9,27.6,30.9c12.1,0,19.2-5.6,26.1-14.1L111,97
	c-10.9,15.1-25.6,26.1-51.3,26.1C26.6,123.1,0,97.8,0,63.2z"/>
<path id="XMLID_25_" class="st0" d="M123,0h31.4v43.5c5.8-7.4,14.1-14.2,26.8-14.2c19,0,30.4,12.6,30.4,32.9v58.6h-31.4V72.3
	c0-9.8-5.1-15.1-12.6-15.1c-7.6,0-13.2,5.3-13.2,15.1v48.5H123V0z"/>
<path id="XMLID_22_" class="st0" d="M223.4,95.2v-0.3c0-18.5,14.1-28.1,35.1-28.1c8.3,0,16.4,1.7,21.5,3.5v-1.5
	c0-9.3-5.8-14.6-17.9-14.6c-9.4,0-16.7,1.8-24.7,5L231,36.9c10.1-4.1,20.9-7,36.2-7c16.1,0,27,3.8,34.1,10.9
	c6.8,6.6,9.6,15.9,9.6,28.5v51.5h-31.1v-9.3c-6.1,6.8-14.6,11.3-26.3,11.3C236.5,122.8,223.4,113,223.4,95.2z M280.3,88.4v-4.1
	c-3.1-1.3-7.6-2.3-12.2-2.3c-9.1,0-14.4,4.5-14.4,11.1v0.3c0,6.1,4.6,9.8,11.1,9.8C273.9,103.1,280.3,97.3,280.3,88.4z"/>
<path id="XMLID_20_" class="st0" d="M331.6,93V56.6H321V31.3h10.6V8.6h31.4v22.7h20.9v25.3h-20.9v30.3c0,6.3,2.8,8.9,8.6,8.9
	c4.1,0,8.1-1.2,11.9-3v24.7c-5.6,3.1-13.1,5.1-21.8,5.1C342.9,122.6,331.6,114.3,331.6,93z"/>
<path id="XMLID_18_" class="st0" d="M402.9,93V56.6h-10.6V31.3h10.6V8.6h31.4v22.7h20.9v25.3h-20.9v30.3c0,6.3,2.8,8.9,8.6,8.9
	c4.1,0,8.1-1.2,11.9-3v24.7c-5.6,3.1-13.1,5.1-21.8,5.1C414.2,122.6,402.9,114.3,402.9,93z"/>
<path id="XMLID_15_" class="st0" d="M462.7,76.5v-0.3c0-25.5,20.9-46.8,49.6-46.8c28.6,0,49.3,21,49.3,46.5v0.3
	c0,25.5-20.9,46.8-49.6,46.8C483.4,123,462.7,101.9,462.7,76.5z M531,76.5v-0.3c0-10.9-7.9-20.2-19-20.2c-11.4,0-18.7,9.1-18.7,19.9
	v0.3c0,10.9,7.9,20.2,19,20.2C523.7,96.3,531,87.2,531,76.5z"/>
</svg>
