<!-- Generator: Adobe Illustrator 19.0.0, SVG Export Plug-In  -->
<svg version="1.1"
	 xmlns="http://www.w3.org/2000/svg" xmlns:xlink="http://www.w3.org/1999/xlink" xmlns:a="http://ns.adobe.com/AdobeSVGViewerExtensions/3.0/"
	 x="0px" y="0px" width="501.6px" height="128.4px" viewBox="0 0 501.6 128.4"
	 style="overflow:scroll;enable-background:new 0 0 501.6 128.4;" xml:space="preserve">
<style type="text/css">
	.st0{fill:#5565AF;}
</style>
<defs>
</defs>
<path id="XMLID_41_" class="st0" d="M98.6,99.8c-2,3.9-4.4,7.5-7.4,11c-2.9,3.5-6.3,6.5-10,9.1c-3.8,2.6-7.9,4.6-12.4,6.1
	c-4.5,1.5-9.3,2.2-14.4,2.2c-8.3,0-15.8-1.5-22.5-4.4c-6.7-2.9-12.4-7-17.1-12.3c-4.7-5.3-8.3-11.6-10.9-19C1.3,85.1,0,77,0,68.2
	C0,59,1.4,50.4,4.1,42.4c2.7-8,6.6-14.9,11.6-20.9c5-5.9,11.1-10.6,18.1-14c7.1-3.4,14.9-5.1,23.7-5.1C64,2.5,70.1,3,75.5,4.1
	C81,5.2,86.8,7,93,9.4v33.8H75.1L70,23c-2.6-1.1-5.5-2-8.6-2.6c-3.1-0.7-6.3-1-9.8-1c-1.4,0-2.8,0.1-4.2,0.2
	c-1.4,0.1-2.8,0.3-4.2,0.7c-4.5,5-7.7,10.8-9.5,17.5c-1.8,6.7-2.7,14.6-2.7,23.5c0,8.4,0.8,15.6,2.4,21.7c1.6,6.1,3.8,11.1,6.7,15
	c2.9,3.9,6.3,6.8,10.2,8.7c3.9,1.9,8.1,2.8,12.7,2.8c6.2,0,11.3-1.4,15.4-4.3c4.1-2.9,7.8-6.7,11.1-11.6L98.6,99.8z"/>
<path id="XMLID_39_" class="st0" d="M116.3,34.4c0-1,0-2.3-0.1-4c-0.1-1.7-0.1-3.3-0.2-5c-0.1-1.7-0.1-3.3-0.2-4.7
	c-0.1-1.4-0.1-2.4-0.2-3l-14.2-2.2V2.5L141.3,0c0.1,2.3,0.2,4.9,0.2,7.8c0.1,2.9,0.1,5.8,0.2,8.9c0.1,3.1,0.2,6.2,0.2,9.3
	c0.1,3.1,0.1,5.9,0.1,8.4v16.2c3.7-3.9,7.6-6.8,11.4-8.9c3.9-2.1,8.5-3.1,14.1-3.1c4.1,0,7.7,0.8,10.9,2.3c3.2,1.5,5.9,3.7,8.2,6.4
	c2.3,2.7,4,6,5.2,9.8c1.2,3.8,1.8,8,1.8,12.5V113c1.9,1,3.9,1.8,6.1,2.4c2.2,0.6,4.4,1.1,6.5,1.4v9.8h-47.8v-10.1
	c1.9-0.3,3.5-0.7,5-1.2c1.4-0.4,2.9-1.2,4.5-2.3V72.8c0-3.1-0.3-5.6-1-7.5c-0.7-1.9-1.6-3.4-2.7-4.6c-1.2-1.1-2.5-1.9-4-2.3
	c-1.5-0.4-3.1-0.7-4.7-0.7c-2.3,0-4.5,0.3-6.6,1c-2.1,0.7-4.4,1.7-6.8,3V113c1.5,1.1,3,1.9,4.4,2.3c1.4,0.4,3,0.8,4.7,1.2v10.1
	h-47.7v-9.8c2.1-0.3,4.2-0.8,6.5-1.4c2.2-0.6,4.3-1.4,6.3-2.4V34.4z"/>
<path id="XMLID_36_" class="st0" d="M277.3,127.9c-4.9,0-8.9-1-12.1-3c-3.2-2-5.6-4.6-7.1-7.8c-3.5,3.5-7.1,6.3-10.7,8.2
	c-3.6,1.9-8.2,2.9-13.8,2.9c-3.8,0-7.1-0.6-10-1.7c-2.9-1.2-5.4-2.8-7.4-4.8c-2-2-3.6-4.4-4.7-7.2c-1.1-2.8-1.7-5.7-1.7-8.9
	c0-2.8,0.4-5.6,1.3-8.6c0.9-3,2.9-5.8,6.1-8.5c3.2-2.7,7.9-5.1,14-7.3s14.4-3.7,24.9-4.7v-3.1c0-4.1-0.2-7.5-0.7-10.2
	c-0.5-2.7-1.3-4.8-2.4-6.4c-1.1-1.5-2.5-2.6-4.1-3.3c-1.6-0.7-3.6-1-5.9-1h-2c-0.7,0-1.3,0.1-2,0.2l-4.6,15.9h-18.2v-24
	c4.9-1.8,9.9-3.2,15.2-4.3c5.3-1.1,10.7-1.7,16.2-1.7c6.1,0,11.3,0.9,15.6,2.6c4.4,1.7,7.9,4.1,10.6,7.2c2.7,3.1,4.7,6.8,6,11.1
	c1.3,4.3,1.9,9,1.9,14.2v32.6c0,3.2,0.7,5.3,2.2,6.3c1.4,1,3,1.5,4.8,1.5c0.6,0,1.1-0.1,1.7-0.2c0.6-0.1,1.1-0.3,1.7-0.5l1.2,10.1
	c-1.5,1.2-3.7,2.3-6.5,3.1C284,127.5,280.9,127.9,277.3,127.9z M244.7,112c2.9,0,5.2-0.6,6.9-1.7c1.7-1.1,3.2-2.5,4.5-4.1V89.5
	c-3.9,0.4-7.6,1.1-11.3,1.9c-3.7,0.8-7,1.7-10,2.6c-0.7,2-1,4-1,6c0,3.8,0.9,6.7,2.7,8.9C238.4,111,241.1,112,244.7,112z"/>
<path id="XMLID_34_" class="st0" d="M332.4,56.6v47c0,3,0.6,5.4,1.8,7.3c1.2,1.9,3.4,2.8,6.6,2.8c1.3,0,2.5-0.2,3.6-0.5
	c1-0.3,2-0.8,2.9-1.3l2.6,10.6c-2.4,1.8-5.2,3.2-8.2,4.3c-3,1.1-6.6,1.7-10.8,1.7c-7.9,0-14-2.3-18.1-6.8
	c-4.1-4.5-6.2-10.8-6.2-18.7V56.6H295V41.2h11.6V21.8l25.8-6v25.3h16.1v15.4H332.4z"/>
<path id="XMLID_32_" class="st0" d="M392.2,56.6v47c0,3,0.6,5.4,1.8,7.3c1.2,1.9,3.4,2.8,6.6,2.8c1.3,0,2.5-0.2,3.6-0.5
	c1-0.3,2-0.8,2.9-1.3l2.6,10.6c-2.4,1.8-5.2,3.2-8.2,4.3c-3,1.1-6.6,1.7-10.8,1.7c-7.9,0-14-2.3-18.1-6.8
	c-4.1-4.5-6.2-10.8-6.2-18.7V56.6h-11.6V41.2h11.6V21.8l25.8-6v25.3h16.1v15.4H392.2z"/>
<path id="XMLID_29_" class="st0" d="M416.8,82.6c0-7,1.1-13.2,3.2-18.6s5.2-10.1,9-13.8c3.9-3.7,8.4-6.6,13.7-8.6
	c5.3-2,11.1-3,17.5-3c6.4,0,12.2,1.2,17.3,3.5s9.5,5.5,13,9.5c3.5,4,6.2,8.8,8.1,14.4c1.9,5.6,2.8,11.7,2.8,18.3
	c0,7-1.1,13.2-3.2,18.6c-2.2,5.5-5.1,10.1-8.9,13.8c-3.8,3.8-8.4,6.6-13.7,8.6c-5.4,2-11.2,3-17.5,3c-6.5,0-12.3-1.1-17.4-3.4
	c-5.1-2.3-9.4-5.4-13-9.5c-3.6-4.1-6.3-8.9-8.2-14.5C417.8,95.3,416.8,89.2,416.8,82.6z M455.2,53.5c-2,0-3.8,0.3-5.5,1
	c-4.3,4.7-6.5,12.4-6.5,22.8c0,11.9,1.7,21.2,5,28c3.3,6.7,8.3,10.1,14.9,10.1c2,0,3.8-0.3,5.5-1c2.2-2.3,3.8-5.3,4.8-8.9
	s1.5-8.2,1.5-13.7c0-12-1.7-21.4-5.1-28.1C466.4,56.8,461.5,53.5,455.2,53.5z"/>
</svg>
