<svg xmlns="http://www.w3.org/2000/svg" xmlns:xlink="http://www.w3.org/1999/xlink" xml:space="preserve" version="1.1" style="shape-rendering:geometricPrecision;text-rendering:geometricPrecision;image-rendering:optimizeQuality;" viewBox="0 0 1.096 1.37" x="0px" y="0px" fill-rule="evenodd" clip-rule="evenodd"><defs><style type="text/css">
   
    .fil0 {fill:black;fill-rule:nonzero}
   
  </style></defs><g><path class="fil0" d="M0.548 0c0.151,0 0.289,0.061 0.388,0.161 0.099,0.099 0.16,0.236 0.16,0.387 0,0.151 -0.061,0.289 -0.16,0.388 -0.099,0.099 -0.237,0.16 -0.388,0.16 -0.151,0 -0.288,-0.061 -0.387,-0.16 -0.1,-0.099 -0.161,-0.237 -0.161,-0.388 0,-0.151 0.061,-0.288 0.161,-0.387 0.099,-0.1 0.236,-0.161 0.387,-0.161zm0.212 0.372l-0.036 -0.035c-0.019,-0.02 -0.051,-0.02 -0.07,0l-0.106 0.105 -0.106 -0.105c-0.019,-0.02 -0.051,-0.02 -0.07,0l-0.035 0.035c-0.02,0.019 -0.02,0.051 0,0.07l0.105 0.106 -0.105 0.106c-0.02,0.019 -0.02,0.051 0,0.07l0.035 0.036c0.019,0.019 0.051,0.019 0.07,0l0.106 -0.106 0.106 0.106c0.019,0.019 0.051,0.019 0.07,0l0.036 -0.036c0.019,-0.019 0.019,-0.051 0,-0.07l-0.106 -0.106 0.106 -0.106c0.019,-0.019 0.019,-0.051 0,-0.07zm0.105 -0.141c-0.081,-0.081 -0.193,-0.131 -0.317,-0.131 -0.124,0 -0.236,0.05 -0.317,0.131 -0.081,0.081 -0.131,0.193 -0.131,0.317 0,0.124 0.05,0.236 0.131,0.317 0.081,0.081 0.193,0.132 0.317,0.132 0.124,0 0.236,-0.051 0.317,-0.132 0.081,-0.081 0.132,-0.193 0.132,-0.317 0,-0.124 -0.051,-0.236 -0.132,-0.317z"/></g><text x="0" y="16.096" fill="#000000" font-size="5px" font-weight="bold" font-family="'Helvetica Neue', Helvetica, Arial-Unicode, Arial, Sans-serif">Created by Deemak Daksina</text><text x="0" y="21.096" fill="#000000" font-size="5px" font-weight="bold" font-family="'Helvetica Neue', Helvetica, Arial-Unicode, Arial, Sans-serif">from the Noun Project</text></svg>