<?xml version="1.0" encoding="utf-8"?>
<!-- Generator: Adobe Illustrator 19.0.0, SVG Export Plug-In . SVG Version: 6.00 Build 0)  -->
<svg version="1.1" id="Layer_1" xmlns="http://www.w3.org/2000/svg" xmlns:xlink="http://www.w3.org/1999/xlink" x="0px" y="0px"
	 viewBox="-441.5 445.5 85 85" style="enable-background:new -441.5 445.5 85 85;" xml:space="preserve">
<style type="text/css">
	.st0{fill:#FFFAFF;}
</style>
<title>macem macem</title>
<path class="st0" d="M-356.5,449.1l-12.1,72.9c-0.2,1.5-1.5,2.5-3,2.5c-0.4,0-0.8-0.1-1.1-0.2l-21.5-8.8l-11.5,14
	c-0.6,0.7-1.4,1.1-2.3,1.1c-0.3,0-0.7-0.1-1-0.2c-1.2-0.4-2-1.6-2-2.8v-16.6l41-50.2l-50.8,43.9l-18.7-7.7c-1.1-0.4-1.8-1.4-1.9-2.6
	c-0.1-1.1,0.5-2.2,1.5-2.8l79-45.5c0.5-0.3,1-0.4,1.5-0.4c0.6,0,1.2,0.2,1.7,0.5C-356.8,446.7-356.3,447.9-356.5,449.1z"/>
</svg>
