<svg xmlns="http://www.w3.org/2000/svg" xmlns:xlink="http://www.w3.org/1999/xlink" version="1.1" x="0px" y="0px" viewBox="0 0 100 125" enable-background="new 0 0 100 100" xml:space="preserve"><path d="M97.473,20.494c0.082-0.689-0.116-1.391-0.582-1.93c-0.596-0.69-1.521-1.001-2.416-0.809L4.477,37.083  c-1.032,0.222-1.813,1.067-1.953,2.113c-0.14,1.046,0.392,2.067,1.33,2.552l25.152,13.009l1.442,9.063l2.278,16.518  c0.118,0.857,0.672,1.594,1.464,1.944c0.324,0.144,0.669,0.214,1.013,0.214c0.496,0,0.988-0.146,1.411-0.436l17.57-12.006  l17.397,11.428c0.637,0.418,1.427,0.523,2.151,0.287c0.723-0.237,1.299-0.791,1.564-1.504l21.5-57.729  C97.328,21.986,97.564,21.232,97.473,20.494z M12.34,40.509l66.388-14.258L31.283,50.307L12.34,40.509z M40.681,57.135l0.007,0.01  c-0.423,0.307-0.753,0.734-0.917,1.244l-3.435,10.617l-0.939-5.904l-1.195-8.668l33.854-17.166L40.681,57.135z M40.096,73.625  l3.422-10.576l6.147,4.037L40.096,73.625z M71.705,75.582L46.546,59.056l42.913-31.142L71.705,75.582z"/><text x="0" y="115" fill="#000000" font-size="5px" font-weight="bold" font-family="'Helvetica Neue', Helvetica, Arial-Unicode, Arial, Sans-serif">Created by bmijnlieff</text><text x="0" y="120" fill="#000000" font-size="5px" font-weight="bold" font-family="'Helvetica Neue', Helvetica, Arial-Unicode, Arial, Sans-serif">from the Noun Project</text></svg>